<svg width="100" height="30" viewBox="0 0 100 30" fill="none" xmlns="http://www.w3.org/2000/svg">
<mask id="mask0_424_495" style="mask-type:luminance" maskUnits="userSpaceOnUse" x="0" y="0" width="100" height="30">
<path d="M100 0H0V30H100V0Z" fill="white"/>
</mask>
<g mask="url(#mask0_424_495)">
<path d="M30.9846 22.9039H30.2079L31.3914 19.4755H32.3255L33.5074 22.9039H32.7306L31.8719 20.2589H31.8451L30.9846 22.9039ZM30.9361 21.5563H32.7708V22.1221H30.9361V21.5563ZM36.871 20.4615C36.8576 20.3265 36.8001 20.2215 36.6985 20.1468C36.597 20.072 36.4592 20.0346 36.2851 20.0346C36.1668 20.0346 36.0669 20.0513 35.9854 20.0848C35.9039 20.1172 35.8414 20.1624 35.7979 20.2204C35.7555 20.2785 35.7343 20.3443 35.7343 20.418C35.7321 20.4793 35.7449 20.5329 35.7728 20.5787C35.8018 20.6244 35.8414 20.664 35.8917 20.6975C35.9419 20.7299 35.9999 20.7584 36.0658 20.7829C36.1316 20.8063 36.2019 20.8264 36.2767 20.8432L36.5847 20.9168C36.7343 20.9503 36.8715 20.995 36.9965 21.0508C37.1215 21.1066 37.2298 21.1752 37.3213 21.2567C37.4128 21.3381 37.4837 21.4341 37.5339 21.5446C37.5852 21.6551 37.6114 21.7818 37.6126 21.9246C37.6114 22.1344 37.5579 22.3163 37.4519 22.4703C37.347 22.6232 37.1952 22.7421 36.9965 22.8269C36.799 22.9106 36.5607 22.9525 36.2817 22.9525C36.0049 22.9525 35.7639 22.9101 35.5585 22.8252C35.3543 22.7404 35.1947 22.6149 35.0797 22.4486C34.9659 22.2812 34.9062 22.0741 34.9006 21.8275H35.602C35.6099 21.9425 35.6428 22.0384 35.7008 22.1154C35.76 22.1913 35.8386 22.2488 35.9368 22.2879C36.0362 22.3258 36.1483 22.3448 36.2733 22.3448C36.3961 22.3448 36.5027 22.3269 36.5931 22.2912C36.6846 22.2555 36.7555 22.2058 36.8057 22.1422C36.8559 22.0786 36.881 22.0055 36.881 21.9229C36.881 21.8459 36.8581 21.7812 36.8124 21.7287C36.7677 21.6763 36.7019 21.6316 36.6148 21.5948C36.5289 21.558 36.4234 21.5245 36.2984 21.4944L35.9251 21.4006C35.6361 21.3303 35.4079 21.2204 35.2404 21.0708C35.073 20.9213 34.9899 20.7199 34.991 20.4665C34.9899 20.2589 35.0451 20.0776 35.1567 19.9224C35.2695 19.7673 35.424 19.6462 35.6205 19.5592C35.8169 19.4721 36.0401 19.4286 36.2901 19.4286C36.5445 19.4286 36.7666 19.4721 36.9563 19.5592C37.1472 19.6462 37.2956 19.7673 37.4016 19.9224C37.5077 20.0776 37.5623 20.2573 37.5657 20.4615H36.871ZM38.527 23.8682C38.4366 23.8682 38.3518 23.8609 38.2726 23.8464C38.1944 23.833 38.1297 23.8157 38.0784 23.7945L38.2391 23.2622C38.3228 23.2878 38.3981 23.3018 38.4651 23.304C38.5331 23.3062 38.5917 23.2906 38.6408 23.2571C38.6911 23.2237 38.7318 23.1667 38.763 23.0864L38.8049 22.9776L37.8825 20.3326H38.6325L39.1648 22.2209H39.1916L39.729 20.3326H40.484L39.4846 23.1818C39.4366 23.3202 39.3713 23.4407 39.2887 23.5434C39.2072 23.6472 39.104 23.727 38.979 23.7828C38.854 23.8397 38.7033 23.8682 38.527 23.8682ZM41.562 21.4174V22.9039H40.8489V20.3326H41.5286V20.7863H41.5587C41.6156 20.6367 41.711 20.5184 41.845 20.4314C41.9789 20.3432 42.1413 20.2991 42.3321 20.2991C42.5107 20.2991 42.6664 20.3382 42.7992 20.4163C42.932 20.4944 43.0352 20.606 43.1089 20.7511C43.1825 20.8951 43.2193 21.0669 43.2193 21.2667V22.9039H42.5062V21.3939C42.5073 21.2366 42.4671 21.1138 42.3857 21.0256C42.3042 20.9364 42.192 20.8917 42.0492 20.8917C41.9532 20.8917 41.8684 20.9124 41.7947 20.9537C41.7222 20.995 41.6653 21.0552 41.624 21.1345C41.5838 21.2126 41.5632 21.3069 41.562 21.4174ZM45.1491 20.3326V20.8683H43.6006V20.3326H45.1491ZM43.9522 19.7165H44.6653V22.1138C44.6653 22.1796 44.6753 22.231 44.6954 22.2678C44.7155 22.3035 44.7434 22.3286 44.7791 22.3431C44.816 22.3576 44.8584 22.3649 44.9064 22.3649C44.9398 22.3649 44.9733 22.3621 45.0068 22.3565C45.0403 22.3498 45.066 22.3448 45.0838 22.3414L45.196 22.8721C45.1603 22.8833 45.11 22.8961 45.0453 22.9106C44.9806 22.9262 44.9019 22.9357 44.8093 22.9391C44.6374 22.9458 44.4867 22.9229 44.3573 22.8704C44.2289 22.818 44.129 22.7365 44.0576 22.626C43.9862 22.5155 43.951 22.376 43.9522 22.2075V19.7165ZM46.382 21.4174V22.9039H45.6689V19.4755H46.3619V20.7863H46.3921C46.4501 20.6345 46.5439 20.5156 46.6733 20.4297C46.8028 20.3426 46.9652 20.2991 47.1605 20.2991C47.339 20.2991 47.4947 20.3382 47.6275 20.4163C47.7614 20.4933 47.8652 20.6043 47.9389 20.7494C48.0137 20.8934 48.0505 21.0658 48.0494 21.2667V22.9039H47.3362V21.3939C47.3373 21.2355 47.2972 21.1121 47.2157 21.024C47.1353 20.9358 47.0226 20.8917 46.8775 20.8917C46.7804 20.8917 46.6945 20.9124 46.6197 20.9537C46.5461 20.995 46.4881 21.0552 46.4456 21.1345C46.4043 21.2126 46.3831 21.3069 46.382 21.4174ZM49.7824 22.9541C49.5179 22.9541 49.2903 22.9006 49.0994 22.7934C48.9097 22.6852 48.7635 22.5323 48.6608 22.3347C48.5581 22.1361 48.5068 21.9012 48.5068 21.63C48.5068 21.3655 48.5581 21.1333 48.6608 20.9336C48.7635 20.7338 48.908 20.5781 49.0944 20.4665C49.2819 20.3549 49.5017 20.2991 49.754 20.2991C49.9236 20.2991 50.0815 20.3265 50.2277 20.3811C50.375 20.4347 50.5034 20.5156 50.6127 20.6239C50.7232 20.7321 50.8092 20.8683 50.8705 21.0323C50.9319 21.1953 50.9626 21.3861 50.9626 21.6049V21.8007H48.7914V21.3588H50.2913C50.2913 21.2561 50.269 21.1651 50.2244 21.0859C50.1797 21.0067 50.1178 20.9447 50.0386 20.9001C49.9604 20.8543 49.8695 20.8315 49.7657 20.8315C49.6574 20.8315 49.5615 20.8566 49.4777 20.9068C49.3952 20.9559 49.3304 21.0223 49.2836 21.106C49.2367 21.1886 49.2127 21.2807 49.2116 21.3822V21.8024C49.2116 21.9296 49.235 22.0396 49.2819 22.1322C49.3299 22.2248 49.3974 22.2962 49.4844 22.3465C49.5715 22.3967 49.6747 22.4218 49.7941 22.4218C49.8734 22.4218 49.9459 22.4106 50.0118 22.3883C50.0776 22.366 50.134 22.3325 50.1808 22.2879C50.2277 22.2432 50.2634 22.1885 50.288 22.1238L50.9476 22.1673C50.9141 22.3258 50.8454 22.4642 50.7416 22.5825C50.639 22.6997 50.5062 22.7912 50.3432 22.857C50.1814 22.9218 49.9945 22.9541 49.7824 22.9541ZM52.7957 20.3326V20.8683H51.2472V20.3326H52.7957ZM51.5988 19.7165H52.3119V22.1138C52.3119 22.1796 52.3219 22.231 52.342 22.2678C52.3621 22.3035 52.39 22.3286 52.4257 22.3431C52.4626 22.3576 52.505 22.3649 52.553 22.3649C52.5864 22.3649 52.6199 22.3621 52.6534 22.3565C52.6869 22.3498 52.7126 22.3448 52.7304 22.3414L52.8426 22.8721C52.8069 22.8833 52.7566 22.8961 52.6919 22.9106C52.6272 22.9262 52.5485 22.9357 52.4559 22.9391C52.284 22.9458 52.1333 22.9229 52.0039 22.8704C51.8755 22.818 51.7756 22.7365 51.7042 22.626C51.6328 22.5155 51.5976 22.376 51.5988 22.2075V19.7165ZM53.2602 22.9039V20.3326H53.9734V22.9039H53.2602ZM53.6185 20.0011C53.5125 20.0011 53.4215 19.966 53.3456 19.8957C53.2708 19.8242 53.2335 19.7389 53.2335 19.6395C53.2335 19.5413 53.2708 19.4571 53.3456 19.3868C53.4215 19.3153 53.5125 19.2796 53.6185 19.2796C53.7245 19.2796 53.8149 19.3153 53.8897 19.3868C53.9656 19.4571 54.0035 19.5413 54.0035 19.6395C54.0035 19.7389 53.9656 19.8242 53.8897 19.8957C53.8149 19.966 53.7245 20.0011 53.6185 20.0011ZM55.7064 22.9541C55.4431 22.9541 55.2165 22.8983 55.0268 22.7867C54.8382 22.674 54.6931 22.5178 54.5915 22.318C54.4911 22.1182 54.4409 21.8883 54.4409 21.6283C54.4409 21.3649 54.4916 21.1339 54.5932 20.9352C54.6959 20.7355 54.8415 20.5798 55.0301 20.4682C55.2187 20.3555 55.4431 20.2991 55.7031 20.2991C55.9274 20.2991 56.1238 20.3398 56.2923 20.4213C56.4609 20.5028 56.5942 20.6172 56.6924 20.7645C56.7907 20.9118 56.8448 21.0848 56.8548 21.2834H56.1819C56.1629 21.1551 56.1127 21.0519 56.0312 20.9737C55.9508 20.8945 55.8454 20.8549 55.7148 20.8549C55.6043 20.8549 55.5078 20.885 55.4252 20.9453C55.3437 21.0044 55.2801 21.0909 55.2344 21.2048C55.1886 21.3186 55.1657 21.4564 55.1657 21.6183C55.1657 21.7823 55.188 21.9218 55.2327 22.0368C55.2784 22.1517 55.3426 22.2393 55.4252 22.2996C55.5078 22.3599 55.6043 22.39 55.7148 22.39C55.7963 22.39 55.8694 22.3732 55.9341 22.3398C55.9999 22.3063 56.0541 22.2577 56.0965 22.1941C56.14 22.1294 56.1685 22.0518 56.1819 21.9614H56.8548C56.8437 22.1579 56.7901 22.3308 56.6941 22.4804C56.5993 22.6288 56.4681 22.7449 56.3007 22.8286C56.1333 22.9123 55.9352 22.9541 55.7064 22.9541ZM58.4159 22.9039V19.4755H59.7886C60.0408 19.4755 60.2512 19.5129 60.4197 19.5876C60.5882 19.6624 60.7149 19.7662 60.7997 19.899C60.8845 20.0307 60.9269 20.1825 60.9269 20.3544C60.9269 20.4883 60.9001 20.606 60.8466 20.7076C60.793 20.808 60.7194 20.8906 60.6256 20.9553C60.533 21.0189 60.427 21.0641 60.3075 21.0909V21.1244C60.4381 21.13 60.5603 21.1668 60.6742 21.2349C60.7891 21.303 60.8823 21.3984 60.9537 21.5212C61.0251 21.6428 61.0609 21.7879 61.0609 21.9564C61.0609 22.1383 61.0157 22.3007 60.9253 22.4436C60.836 22.5853 60.7037 22.6975 60.5285 22.78C60.3533 22.8626 60.1373 22.9039 59.8807 22.9039H58.4159ZM59.1407 22.3113H59.7317C59.9337 22.3113 60.081 22.2728 60.1736 22.1958C60.2662 22.1177 60.3126 22.0139 60.3126 21.8844C60.3126 21.7896 60.2897 21.7059 60.2439 21.6333C60.1982 21.5608 60.1329 21.5039 60.0481 21.4626C59.9644 21.4213 59.8645 21.4006 59.7484 21.4006H59.1407V22.3113ZM59.1407 20.9101H59.6781C59.7774 20.9101 59.8656 20.8928 59.9426 20.8582C60.0207 20.8225 60.0821 20.7723 60.1267 20.7076C60.1725 20.6428 60.1954 20.5653 60.1954 20.4749C60.1954 20.351 60.1513 20.2511 60.0631 20.1752C59.9761 20.0993 59.8522 20.0614 59.6915 20.0614H59.1407V20.9101ZM61.5191 22.9039V20.3326H62.2323V22.9039H61.5191ZM61.8774 20.0011C61.7713 20.0011 61.6804 19.966 61.6045 19.8957C61.5297 19.8242 61.4923 19.7389 61.4923 19.6395C61.4923 19.5413 61.5297 19.4571 61.6045 19.3868C61.6804 19.3153 61.7713 19.2796 61.8774 19.2796C61.9834 19.2796 62.0738 19.3153 62.1486 19.3868C62.2245 19.4571 62.2624 19.5413 62.2624 19.6395C62.2624 19.7389 62.2245 19.8242 62.1486 19.8957C62.0738 19.966 61.9834 20.0011 61.8774 20.0011ZM63.9653 22.9541C63.7053 22.9541 63.4804 22.8989 63.2907 22.7884C63.1021 22.6768 62.9564 22.5217 62.8538 22.323C62.7511 22.1233 62.6997 21.8917 62.6997 21.6283C62.6997 21.3627 62.7511 21.1305 62.8538 20.9319C62.9564 20.7321 63.1021 20.577 63.2907 20.4665C63.4804 20.3549 63.7053 20.2991 63.9653 20.2991C64.2253 20.2991 64.4497 20.3549 64.6383 20.4665C64.828 20.577 64.9742 20.7321 65.0769 20.9319C65.1796 21.1305 65.2309 21.3627 65.2309 21.6283C65.2309 21.8917 65.1796 22.1233 65.0769 22.323C64.9742 22.5217 64.828 22.6768 64.6383 22.7884C64.4497 22.8989 64.2253 22.9541 63.9653 22.9541ZM63.9687 22.4017C64.087 22.4017 64.1857 22.3682 64.265 22.3013C64.3442 22.2332 64.4039 22.1406 64.4441 22.0234C64.4854 21.9062 64.506 21.7728 64.506 21.6233C64.506 21.4737 64.4854 21.3404 64.4441 21.2232C64.4039 21.106 64.3442 21.0134 64.265 20.9453C64.1857 20.8772 64.087 20.8432 63.9687 20.8432C63.8492 20.8432 63.7488 20.8772 63.6673 20.9453C63.587 21.0134 63.5262 21.106 63.4849 21.2232C63.4447 21.3404 63.4246 21.4737 63.4246 21.6233C63.4246 21.7728 63.4447 21.9062 63.4849 22.0234C63.5262 22.1406 63.587 22.2332 63.6673 22.3013C63.7488 22.3682 63.8492 22.4017 63.9687 22.4017ZM66.4077 19.4755V22.9039H65.6946V19.4755H66.4077ZM68.1408 22.9541C67.8808 22.9541 67.6559 22.8989 67.4662 22.7884C67.2775 22.6768 67.1319 22.5217 67.0292 22.323C66.9266 22.1233 66.8752 21.8917 66.8752 21.6283C66.8752 21.3627 66.9266 21.1305 67.0292 20.9319C67.1319 20.7321 67.2775 20.577 67.4662 20.4665C67.6559 20.3549 67.8808 20.2991 68.1408 20.2991C68.4008 20.2991 68.6251 20.3549 68.8138 20.4665C69.0035 20.577 69.1497 20.7321 69.2524 20.9319C69.355 21.1305 69.4064 21.3627 69.4064 21.6283C69.4064 21.8917 69.355 22.1233 69.2524 22.323C69.1497 22.5217 69.0035 22.6768 68.8138 22.7884C68.6251 22.8989 68.4008 22.9541 68.1408 22.9541ZM68.1441 22.4017C68.2624 22.4017 68.3612 22.3682 68.4404 22.3013C68.5197 22.2332 68.5794 22.1406 68.6196 22.0234C68.6609 21.9062 68.6815 21.7728 68.6815 21.6233C68.6815 21.4737 68.6609 21.3404 68.6196 21.2232C68.5794 21.106 68.5197 21.0134 68.4404 20.9453C68.3612 20.8772 68.2624 20.8432 68.1441 20.8432C68.0247 20.8432 67.9243 20.8772 67.8428 20.9453C67.7625 21.0134 67.7016 21.106 67.6603 21.2232C67.6202 21.3404 67.6001 21.4737 67.6001 21.6233C67.6001 21.7728 67.6202 21.9062 67.6603 22.0234C67.7016 22.1406 67.7625 22.2332 67.8428 22.3013C67.9243 22.3682 68.0247 22.4017 68.1441 22.4017ZM71.0285 23.9217C70.7975 23.9217 70.5994 23.8899 70.4342 23.8263C70.2702 23.7638 70.1396 23.6784 70.0425 23.5702C69.9454 23.4619 69.8824 23.3403 69.8533 23.2052L70.5129 23.1165C70.533 23.1679 70.5648 23.2158 70.6083 23.2605C70.6519 23.3051 70.7093 23.3408 70.7808 23.3676C70.8533 23.3955 70.9415 23.4095 71.0453 23.4095C71.2004 23.4095 71.3282 23.3715 71.4286 23.2956C71.5302 23.2209 71.5809 23.0953 71.5809 22.919V22.4486H71.5508C71.5196 22.52 71.4727 22.5875 71.4102 22.6511C71.3477 22.7147 71.2673 22.7666 71.1691 22.8068C71.0709 22.847 70.9537 22.8671 70.8176 22.8671C70.6245 22.8671 70.4487 22.8224 70.2903 22.7332C70.1329 22.6428 70.0073 22.5049 69.9136 22.3197C69.821 22.1333 69.7747 21.8978 69.7747 21.6132C69.7747 21.3219 69.8221 21.0787 69.9169 20.8833C70.0118 20.688 70.1379 20.5418 70.2953 20.4447C70.4538 20.3477 70.6273 20.2991 70.8159 20.2991C70.9599 20.2991 71.0804 20.3237 71.1775 20.3728C71.2746 20.4208 71.3527 20.481 71.4119 20.5536C71.4721 20.625 71.5184 20.6953 71.5508 20.7645H71.5776V20.3326H72.2857V22.929C72.2857 23.1478 72.2321 23.3308 72.125 23.4781C72.0179 23.6254 71.8694 23.7359 71.6797 23.8096C71.4911 23.8843 71.274 23.9217 71.0285 23.9217ZM71.0436 22.3314C71.1585 22.3314 71.2556 22.3029 71.3349 22.246C71.4152 22.188 71.4766 22.1054 71.519 21.9983C71.5625 21.89 71.5843 21.7605 71.5843 21.6099C71.5843 21.4592 71.5631 21.3286 71.5207 21.2182C71.4783 21.1066 71.4169 21.0201 71.3365 20.9587C71.2562 20.8973 71.1585 20.8666 71.0436 20.8666C70.9264 20.8666 70.8276 20.8984 70.7473 20.962C70.6669 21.0245 70.6061 21.1116 70.5648 21.2232C70.5235 21.3348 70.5029 21.4637 70.5029 21.6099C70.5029 21.7583 70.5235 21.8867 70.5648 21.9949C70.6072 22.102 70.668 22.1852 70.7473 22.2443C70.8276 22.3024 70.9264 22.3314 71.0436 22.3314ZM73.2935 23.8682C73.2031 23.8682 73.1183 23.8609 73.039 23.8464C72.9609 23.833 72.8962 23.8157 72.8448 23.7945L73.0056 23.2622C73.0893 23.2878 73.1646 23.3018 73.2316 23.304C73.2996 23.3062 73.3582 23.2906 73.4073 23.2571C73.4575 23.2237 73.4983 23.1667 73.5295 23.0864L73.5714 22.9776L72.649 20.3326H73.399L73.9313 22.2209H73.9581L74.4955 20.3326H75.2504L74.251 23.1818C74.2031 23.3202 74.1378 23.4407 74.0552 23.5434C73.9737 23.6472 73.8705 23.727 73.7455 23.7828C73.6205 23.8397 73.4698 23.8682 73.2935 23.8682ZM79.7448 20.6758H79.0116C78.9982 20.5809 78.9709 20.4966 78.9296 20.423C78.8883 20.3482 78.8353 20.2846 78.7705 20.2321C78.7058 20.1797 78.631 20.1395 78.5462 20.1116C78.4625 20.0837 78.3716 20.0698 78.2733 20.0698C78.0959 20.0698 77.9413 20.1138 77.8096 20.202C77.6779 20.2891 77.5758 20.4163 77.5033 20.5837C77.4307 20.75 77.3945 20.952 77.3945 21.1897C77.3945 21.4341 77.4307 21.6395 77.5033 21.8057C77.5769 21.972 77.6796 22.0976 77.8113 22.1824C77.943 22.2672 78.0953 22.3096 78.2683 22.3096C78.3654 22.3096 78.4553 22.2968 78.5378 22.2711C78.6215 22.2455 78.6958 22.2081 78.7605 22.159C78.8252 22.1087 78.8788 22.0479 78.9212 21.9765C78.9647 21.9051 78.9949 21.8236 79.0116 21.7321L79.7448 21.7354C79.7259 21.8928 79.6784 22.0446 79.6025 22.1908C79.5278 22.3359 79.4268 22.4659 79.2995 22.5808C79.1734 22.6947 79.0228 22.7851 78.8475 22.852C78.6734 22.9179 78.4765 22.9508 78.2566 22.9508C77.9508 22.9508 77.6774 22.8816 77.4363 22.7432C77.1964 22.6048 77.0067 22.4045 76.8671 22.1422C76.7288 21.88 76.6596 21.5625 76.6596 21.1897C76.6596 20.8158 76.7299 20.4978 76.8705 20.2355C77.0111 19.9732 77.202 19.7735 77.443 19.6362C77.6841 19.4978 77.9553 19.4286 78.2566 19.4286C78.4553 19.4286 78.6394 19.4565 78.809 19.5123C78.9798 19.5681 79.131 19.6496 79.2627 19.7567C79.3944 19.8627 79.5015 19.9928 79.5841 20.1468C79.6678 20.3008 79.7214 20.4771 79.7448 20.6758ZM81.413 22.9541C81.153 22.9541 80.9281 22.8989 80.7384 22.7884C80.5498 22.6768 80.4041 22.5217 80.3014 22.323C80.1988 22.1233 80.1474 21.8917 80.1474 21.6283C80.1474 21.3627 80.1988 21.1305 80.3014 20.9319C80.4041 20.7321 80.5498 20.577 80.7384 20.4665C80.9281 20.3549 81.153 20.2991 81.413 20.2991C81.673 20.2991 81.8974 20.3549 82.086 20.4665C82.2757 20.577 82.4219 20.7321 82.5246 20.9319C82.6272 21.1305 82.6786 21.3627 82.6786 21.6283C82.6786 21.8917 82.6272 22.1233 82.5246 22.323C82.4219 22.5217 82.2757 22.6768 82.086 22.7884C81.8974 22.8989 81.673 22.9541 81.413 22.9541ZM81.4164 22.4017C81.5347 22.4017 81.6334 22.3682 81.7127 22.3013C81.7919 22.2332 81.8516 22.1406 81.8918 22.0234C81.9331 21.9062 81.9537 21.7728 81.9537 21.6233C81.9537 21.4737 81.9331 21.3404 81.8918 21.2232C81.8516 21.106 81.7919 21.0134 81.7127 20.9453C81.6334 20.8772 81.5347 20.8432 81.4164 20.8432C81.2969 20.8432 81.1965 20.8772 81.115 20.9453C81.0347 21.0134 80.9739 21.106 80.9326 21.2232C80.8924 21.3404 80.8723 21.4737 80.8723 21.6233C80.8723 21.7728 80.8924 21.9062 80.9326 22.0234C80.9739 22.1406 81.0347 22.2332 81.115 22.3013C81.1965 22.3682 81.2969 22.4017 81.4164 22.4017ZM83.1423 22.9039V20.3326H83.822V20.7863H83.8521C83.9057 20.6356 83.9949 20.5167 84.1199 20.4297C84.2449 20.3426 84.3945 20.2991 84.5686 20.2991C84.7449 20.2991 84.895 20.3432 85.0189 20.4314C85.1428 20.5184 85.2254 20.6367 85.2666 20.7863H85.2934C85.3459 20.6389 85.4407 20.5212 85.578 20.433C85.7164 20.3437 85.8799 20.2991 86.0685 20.2991C86.3085 20.2991 86.5032 20.3756 86.6528 20.5285C86.8034 20.6802 86.8788 20.8956 86.8788 21.1746V22.9039H86.1673V21.3153C86.1673 21.1724 86.1293 21.0653 86.0534 20.9938C85.9776 20.9224 85.8827 20.8867 85.7689 20.8867C85.6394 20.8867 85.5384 20.928 85.4659 21.0106C85.3933 21.092 85.357 21.1997 85.357 21.3337V22.9039H84.6657V21.3002C84.6657 21.1741 84.6294 21.0736 84.5569 20.9989C84.4854 20.9241 84.3911 20.8867 84.2739 20.8867C84.1947 20.8867 84.1233 20.9068 84.0597 20.947C83.9972 20.986 83.9475 21.0413 83.9107 21.1127C83.8738 21.183 83.8554 21.2656 83.8554 21.3604V22.9039H83.1423ZM87.4421 23.8682V20.3326H88.1452V20.7645H88.177C88.2082 20.6953 88.2534 20.625 88.3126 20.5536C88.3728 20.481 88.451 20.4208 88.5469 20.3728C88.644 20.3237 88.7646 20.2991 88.9085 20.2991C89.096 20.2991 89.269 20.3482 89.4275 20.4464C89.586 20.5435 89.7126 20.6903 89.8075 20.8867C89.9023 21.082 89.9498 21.327 89.9498 21.6216C89.9498 21.9084 89.9035 22.1506 89.8108 22.3481C89.7193 22.5446 89.5943 22.6935 89.4358 22.7951C89.2785 22.8955 89.1022 22.9458 88.9069 22.9458C88.7685 22.9458 88.6507 22.9229 88.5536 22.8771C88.4577 22.8314 88.379 22.7739 88.3176 22.7047C88.2562 22.6344 88.2093 22.5635 88.177 22.4921H88.1552V23.8682H87.4421ZM88.1401 21.6183C88.1401 21.7711 88.1613 21.9045 88.2038 22.0183C88.2462 22.1322 88.3075 22.2209 88.3879 22.2845C88.4683 22.347 88.5659 22.3783 88.6809 22.3783C88.7969 22.3783 88.8951 22.3465 88.9755 22.2828C89.0558 22.2181 89.1167 22.1288 89.158 22.015C89.2004 21.9 89.2216 21.7678 89.2216 21.6183C89.2216 21.4698 89.2009 21.3392 89.1596 21.2265C89.1183 21.1138 89.0575 21.0256 88.9772 20.962C88.8968 20.8984 88.798 20.8666 88.6809 20.8666C88.5648 20.8666 88.4666 20.8973 88.3862 20.9587C88.307 21.0201 88.2462 21.1071 88.2038 21.2198C88.1613 21.3325 88.1401 21.4654 88.1401 21.6183ZM91.1584 22.9525C90.9944 22.9525 90.8482 22.924 90.7198 22.8671C90.5915 22.8091 90.4899 22.7237 90.4152 22.611C90.3415 22.4971 90.3047 22.3554 90.3047 22.1858C90.3047 22.0429 90.3309 21.9229 90.3834 21.8258C90.4358 21.7287 90.5072 21.6506 90.5976 21.5915C90.688 21.5323 90.7907 21.4877 90.9057 21.4575C91.0217 21.4274 91.1434 21.4062 91.2706 21.3939C91.4201 21.3783 91.5407 21.3638 91.6322 21.3504C91.7237 21.3359 91.7901 21.3147 91.8314 21.2868C91.8727 21.2589 91.8933 21.2176 91.8933 21.1629V21.1529C91.8933 21.0468 91.8599 20.9648 91.7929 20.9068C91.7271 20.8488 91.6333 20.8197 91.5117 20.8197C91.3833 20.8197 91.2812 20.8482 91.2053 20.9051C91.1294 20.9609 91.0792 21.0312 91.0546 21.116L90.3951 21.0625C90.4286 20.9062 90.4944 20.7712 90.5926 20.6574C90.6908 20.5424 90.8175 20.4542 90.9726 20.3929C91.1289 20.3304 91.3097 20.2991 91.515 20.2991C91.6579 20.2991 91.7946 20.3158 91.9251 20.3493C92.0568 20.3828 92.1735 20.4347 92.275 20.505C92.3777 20.5753 92.4586 20.6657 92.5178 20.7762C92.5769 20.8856 92.6065 21.0167 92.6065 21.1696V22.9039H91.9302V22.5473H91.9101C91.8688 22.6277 91.8135 22.6986 91.7443 22.7599C91.6752 22.8202 91.592 22.8676 91.4949 22.9022C91.3978 22.9357 91.2857 22.9525 91.1584 22.9525ZM91.3627 22.4603C91.4676 22.4603 91.5602 22.4396 91.6406 22.3984C91.7209 22.3559 91.784 22.299 91.8297 22.2276C91.8755 22.1562 91.8984 22.0753 91.8984 21.9849V21.712C91.876 21.7265 91.8453 21.7399 91.8063 21.7522C91.7683 21.7633 91.7254 21.7739 91.6774 21.784C91.6294 21.7929 91.5814 21.8013 91.5334 21.8091C91.4854 21.8158 91.4419 21.8219 91.4028 21.8275C91.3191 21.8398 91.246 21.8593 91.1835 21.8861C91.121 21.9129 91.0725 21.9492 91.0379 21.9949C91.0033 22.0396 90.986 22.0954 90.986 22.1623C90.986 22.2594 91.0212 22.3336 91.0915 22.385C91.1629 22.4352 91.2533 22.4603 91.3627 22.4603ZM93.8729 21.4174V22.9039H93.1598V20.3326H93.8394V20.7863H93.8695C93.9265 20.6367 94.0219 20.5184 94.1558 20.4314C94.2897 20.3432 94.4521 20.2991 94.643 20.2991C94.8215 20.2991 94.9772 20.3382 95.11 20.4163C95.2428 20.4944 95.346 20.606 95.4197 20.7511C95.4934 20.8951 95.5302 21.0669 95.5302 21.2667V22.9039H94.8171V21.3939C94.8182 21.2366 94.778 21.1138 94.6965 21.0256C94.6151 20.9364 94.5029 20.8917 94.36 20.8917C94.2641 20.8917 94.1792 20.9124 94.1056 20.9537C94.033 20.995 93.9761 21.0552 93.9348 21.1345C93.8947 21.2126 93.874 21.3069 93.8729 21.4174ZM96.4405 23.8682C96.3501 23.8682 96.2652 23.8609 96.186 23.8464C96.1079 23.833 96.0431 23.8157 95.9918 23.7945L96.1525 23.2622C96.2362 23.2878 96.3115 23.3018 96.3785 23.304C96.4466 23.3062 96.5052 23.2906 96.5543 23.2571C96.6045 23.2237 96.6452 23.1667 96.6765 23.0864L96.7183 22.9776L95.7959 20.3326H96.5459L97.0783 22.2209H97.105L97.6424 20.3326H98.3974L97.398 23.1818C97.35 23.3202 97.2847 23.4407 97.2021 23.5434C97.1207 23.6472 97.0174 23.727 96.8924 23.7828C96.7674 23.8397 96.6168 23.8682 96.4405 23.8682Z" fill="white"/>
<path d="M30.2979 16.144V6.52535H34.1491C34.8568 6.52535 35.447 6.63024 35.9198 6.84002C36.3926 7.0498 36.7479 7.34099 36.9859 7.71359C37.2239 8.08306 37.3428 8.50888 37.3428 8.99107C37.3428 9.3668 37.2677 9.69713 37.1174 9.98205C36.9671 10.2639 36.7605 10.4956 36.4974 10.6772C36.2376 10.8556 35.9401 10.9824 35.6051 11.0576V11.1515C35.9714 11.1672 36.3143 11.2705 36.6336 11.4615C36.9561 11.6525 37.2176 11.9202 37.418 12.2646C37.6184 12.6059 37.7186 13.0129 37.7186 13.4857C37.7186 13.9961 37.5918 14.4517 37.3381 14.8524C37.0877 15.2501 36.7166 15.5648 36.225 15.7965C35.7335 16.0282 35.1276 16.144 34.4074 16.144H30.2979ZM32.3315 14.4814H33.9895C34.5562 14.4814 34.9695 14.3734 35.2294 14.1573C35.4892 13.9382 35.6192 13.647 35.6192 13.2838C35.6192 13.0176 35.555 12.7828 35.4266 12.5793C35.2982 12.3758 35.1151 12.2161 34.8771 12.1002C34.6423 11.9844 34.362 11.9265 34.0364 11.9265H32.3315V14.4814ZM32.3315 10.5503H33.8392C34.1178 10.5503 34.3652 10.5018 34.5812 10.4047C34.8004 10.3046 34.9726 10.1637 35.0979 9.98205C35.2262 9.80045 35.2904 9.58284 35.2904 9.32923C35.2904 8.98168 35.1667 8.70144 34.9194 8.48853C34.6752 8.27562 34.3276 8.16916 33.8767 8.16916H32.3315V10.5503ZM41.005 6.52535V16.144H39.0043V6.52535H41.005ZM44.6649 16.2802C44.2046 16.2802 43.7944 16.2004 43.4343 16.0407C43.0743 15.8779 42.7893 15.6383 42.5796 15.3221C42.3729 15.0027 42.2696 14.6051 42.2696 14.1292C42.2696 13.7284 42.3432 13.3918 42.4903 13.1194C42.6375 12.847 42.8379 12.6278 43.0915 12.4619C43.3451 12.2959 43.6332 12.1707 43.9557 12.0861C44.2813 12.0016 44.6226 11.9421 44.9795 11.9077C45.3991 11.8638 45.7372 11.8231 45.994 11.7856C46.2507 11.7449 46.437 11.6854 46.5529 11.6071C46.6687 11.5288 46.7267 11.413 46.7267 11.2595V11.2314C46.7267 10.9339 46.6327 10.7038 46.4449 10.541C46.2601 10.3781 45.9971 10.2967 45.6558 10.2967C45.2958 10.2967 45.0093 10.3766 44.7964 10.5363C44.5834 10.6928 44.4425 10.8901 44.3737 11.128L42.5232 10.9777C42.6171 10.5394 42.8019 10.1605 43.0774 9.84116C43.3529 9.51865 43.7083 9.2713 44.1435 9.09909C44.5819 8.92375 45.0891 8.83608 45.6652 8.83608C46.066 8.83608 46.4496 8.88305 46.8159 8.97698C47.1854 9.07091 47.5126 9.21651 47.7975 9.41376C48.0856 9.61102 48.3126 9.86464 48.4785 10.1746C48.6445 10.4815 48.7274 10.8494 48.7274 11.2783V16.144H46.83V15.1436H46.7736C46.6578 15.3691 46.5028 15.5679 46.3087 15.7401C46.1145 15.9092 45.8813 16.0423 45.6089 16.1393C45.3365 16.2332 45.0218 16.2802 44.6649 16.2802ZM45.2378 14.8994C45.5322 14.8994 45.792 14.8415 46.0175 14.7256C46.2429 14.6067 46.4198 14.447 46.5482 14.2466C46.6766 14.0462 46.7408 13.8192 46.7408 13.5656V12.8C46.6781 12.8407 46.592 12.8783 46.4824 12.9127C46.376 12.9441 46.2554 12.9738 46.1208 13.002C45.9862 13.027 45.8515 13.0505 45.7169 13.0724C45.5823 13.0912 45.4601 13.1084 45.3506 13.1241C45.1157 13.1585 44.9106 13.2133 44.7353 13.2885C44.56 13.3636 44.4238 13.4654 44.3267 13.5938C44.2296 13.719 44.1811 13.8755 44.1811 14.0634C44.1811 14.3358 44.2797 14.544 44.477 14.6881C44.6774 14.829 44.931 14.8994 45.2378 14.8994ZM53.5391 16.2849C52.8002 16.2849 52.1646 16.1284 51.6323 15.8152C51.1031 15.499 50.6961 15.0607 50.4112 14.5002C50.1294 13.9397 49.9885 13.2947 49.9885 12.5652C49.9885 11.8263 50.1309 11.1781 50.4159 10.6208C50.7039 10.0603 51.1125 9.62355 51.6417 9.31044C52.1708 8.9942 52.8002 8.83608 53.5297 8.83608C54.1591 8.83608 54.7101 8.95036 55.1829 9.17893C55.6557 9.4075 56.0299 9.72844 56.3054 10.1417C56.5809 10.555 56.7328 11.0404 56.761 11.5977H54.8729C54.8197 11.2376 54.6788 10.948 54.4503 10.7288C54.2248 10.5065 53.9289 10.3954 53.5626 10.3954C53.2526 10.3954 52.9818 10.4799 52.7501 10.649C52.5215 10.8149 52.343 11.0576 52.2147 11.3769C52.0863 11.6963 52.0221 12.083 52.0221 12.537C52.0221 12.9973 52.0847 13.3887 52.21 13.7112C52.3383 14.0337 52.5184 14.2795 52.7501 14.4485C52.9818 14.6176 53.2526 14.7022 53.5626 14.7022C53.7912 14.7022 53.9962 14.6552 54.1778 14.5613C54.3626 14.4673 54.5144 14.3311 54.6334 14.1526C54.7555 13.971 54.8354 13.7534 54.8729 13.4998H56.761C56.7297 14.0509 56.5794 14.5362 56.3101 14.9558C56.044 15.3722 55.6761 15.6978 55.2064 15.9327C54.7367 16.1675 54.181 16.2849 53.5391 16.2849ZM59.8549 14.0681L59.8596 11.6681H60.1508L62.4615 8.93001H64.7581L61.6537 12.5558H61.1793L59.8549 14.0681ZM58.042 16.144V6.52535H60.0427V16.144H58.042ZM62.5507 16.144L60.4279 13.002L61.7617 11.5883L64.8943 16.144H62.5507Z" fill="white"/>
<path d="M70.0861 9.6345C70.0203 9.40594 69.928 9.20398 69.809 9.02864C69.69 8.85017 69.5444 8.69988 69.3722 8.57777C69.2031 8.45252 69.009 8.35703 68.7898 8.29127C68.5738 8.22552 68.3342 8.19264 68.0712 8.19264C67.5796 8.19264 67.1476 8.31476 66.775 8.55898C66.4055 8.8032 66.1174 9.15858 65.9108 9.62511C65.7041 10.0885 65.6008 10.6552 65.6008 11.3253C65.6008 11.9953 65.7026 12.5652 65.9061 13.0349C66.1096 13.5045 66.3977 13.863 66.7703 14.1104C67.1429 14.3546 67.5828 14.4767 68.09 14.4767C68.5503 14.4767 68.9432 14.3953 69.2689 14.2325C69.5976 14.0665 69.8481 13.8333 70.0203 13.5327C70.1957 13.2321 70.2833 12.8767 70.2833 12.4666L70.6966 12.5276H68.2168V10.9965H72.2418V12.2082C72.2418 13.0536 72.0633 13.78 71.7064 14.3875C71.3495 14.9918 70.8579 15.4583 70.2317 15.7871C69.6054 16.1127 68.8884 16.2755 68.0806 16.2755C67.1789 16.2755 66.3867 16.0767 65.7041 15.679C65.0216 15.2783 64.4893 14.71 64.1073 13.9742C63.7284 13.2352 63.539 12.3585 63.539 11.3441C63.539 10.5644 63.6517 9.86934 63.8771 9.25878C64.1057 8.64508 64.4251 8.12533 64.8353 7.6995C65.2454 7.27367 65.7229 6.94961 66.2677 6.7273C66.8125 6.50499 67.4027 6.39384 68.0383 6.39384C68.5832 6.39384 69.0904 6.47368 69.56 6.63337C70.0297 6.78992 70.4461 7.01223 70.8093 7.30029C71.1757 7.58835 71.4747 7.9312 71.7064 8.32885C71.9381 8.72336 72.0868 9.15858 72.1526 9.6345H70.0861ZM77.0194 16.2849C76.2774 16.2849 75.6386 16.1346 75.1032 15.834C74.5709 15.5303 74.1608 15.1014 73.8727 14.5472C73.5847 13.9898 73.4406 13.3307 73.4406 12.5699C73.4406 11.8278 73.5847 11.1766 73.8727 10.6161C74.1608 10.0556 74.5662 9.61885 75.0891 9.30574C75.6152 8.99263 76.232 8.83608 76.9396 8.83608C77.4155 8.83608 77.8586 8.91279 78.2687 9.06621C78.682 9.21651 79.0421 9.44351 79.349 9.74722C79.6589 10.0509 79.9 10.4329 80.0722 10.8932C80.2445 11.3503 80.3306 11.8857 80.3306 12.4994V13.0489H74.2391V11.809H78.4472C78.4472 11.521 78.3846 11.2658 78.2594 11.0435C78.1341 10.8212 77.9603 10.6474 77.738 10.5222C77.5189 10.3938 77.2637 10.3296 76.9725 10.3296C76.6688 10.3296 76.3995 10.4001 76.1647 10.541C75.933 10.6787 75.7514 10.865 75.6199 11.0998C75.4884 11.3315 75.421 11.5899 75.4179 11.8748V13.0536C75.4179 13.4106 75.4837 13.719 75.6152 13.9789C75.7498 14.2388 75.9392 14.4391 76.1834 14.58C76.4277 14.7209 76.7173 14.7914 77.0523 14.7914C77.2746 14.7914 77.4781 14.7601 77.6629 14.6975C77.8476 14.6348 78.0057 14.5409 78.1372 14.4157C78.2687 14.2904 78.3689 14.137 78.4378 13.9554L80.2883 14.0775C80.1944 14.5221 80.0018 14.9104 79.7106 15.2423C79.4225 15.571 79.05 15.8278 78.5928 16.0125C78.1388 16.1941 77.6144 16.2849 77.0194 16.2849ZM83.637 11.9734V16.144H81.6362V8.93001H83.543V10.2028H83.6276C83.7873 9.78323 84.055 9.45134 84.4307 9.20711C84.8064 8.95976 85.262 8.83608 85.7974 8.83608C86.2984 8.83608 86.7352 8.94567 87.1078 9.16484C87.4804 9.38402 87.77 9.69713 87.9766 10.1042C88.1833 10.5081 88.2866 10.9903 88.2866 11.5507V16.144H86.2859V11.9077C86.289 11.4662 86.1763 11.1218 85.9477 10.8744C85.7191 10.6239 85.4045 10.4987 85.0037 10.4987C84.7344 10.4987 84.4965 10.5566 84.2898 10.6725C84.0863 10.7883 83.9266 10.9574 83.8108 11.1797C83.698 11.3989 83.6401 11.6634 83.637 11.9734ZM91.8643 11.9734V16.144H89.8635V8.93001H91.7703V10.2028H91.8549C92.0146 9.78323 92.2823 9.45134 92.658 9.20711C93.0337 8.95976 93.4893 8.83608 94.0247 8.83608C94.5257 8.83608 94.9625 8.94567 95.3351 9.16484C95.7077 9.38402 95.9973 9.69713 96.2039 10.1042C96.4106 10.5081 96.5139 10.9903 96.5139 11.5507V16.144H94.5132V11.9077C94.5163 11.4662 94.4036 11.1218 94.175 10.8744C93.9464 10.6239 93.6318 10.4987 93.231 10.4987C92.9617 10.4987 92.7238 10.5566 92.5171 10.6725C92.3136 10.7883 92.1539 10.9574 92.038 11.1797C91.9253 11.3989 91.8674 11.6634 91.8643 11.9734Z" fill="#FFC000"/>
<path d="M5.83644 24.3183C4.34552 19.7934 6.7326 15.3965 11.1681 14.4974C11.9127 14.3463 12.6883 14.3017 13.4729 14.3646" stroke="#D9D9D9" stroke-width="0.900262" stroke-miterlimit="8" stroke-linecap="round"/>
<path d="M14.8577 14.5511C16.7196 18.9834 14.7488 23.614 10.4557 24.8939C9.22454 25.2607 7.88416 25.3205 6.54492 25.0685" stroke="#D9D9D9" stroke-width="0.900262" stroke-miterlimit="8"/>
<path d="M15.2524 15.5668C13.1677 11.2083 14.8739 6.44975 19.0633 4.93884C20.4915 4.42399 22.0913 4.33884 23.6786 4.69342" stroke="#D9D9D9" stroke-width="0.900262" stroke-miterlimit="8"/>
<path d="M23.767 4.70828C25.3824 9.2061 23.1316 13.6838 18.7399 14.7105C17.9578 14.8934 17.1376 14.9568 16.3057 14.8991" stroke="#D9D9D9" stroke-width="0.900262" stroke-miterlimit="8" stroke-linecap="round"/>
<path d="M5.78449 24.2096C0.558306 16.0188 2.91151 6.94105 11.0405 3.93406C13.5916 2.99039 16.5251 2.731 19.5534 3.18122" stroke="#D9D9D9" stroke-width="0.900262" stroke-miterlimit="8" stroke-linecap="round"/>
<path d="M6.62273 25.1041C15.3349 29.4364 24.1275 26.1509 26.2614 17.7657C27.0337 14.7307 26.8433 11.2955 25.7148 7.9033" stroke="#D9D9D9" stroke-width="0.900262" stroke-miterlimit="8" stroke-linecap="round"/>
<path d="M8.16309 18.1257L12.1638 21.6947" stroke="#FFC000" stroke-width="0.900262" stroke-miterlimit="8" stroke-linecap="round"/>
<path d="M17.291 7.88338L21.2917 11.4519" stroke="#FFC000" stroke-width="0.900262" stroke-miterlimit="8" stroke-linecap="round"/>
<path d="M6.9082 20.9109L9.5405 23.2589" stroke="#FFC000" stroke-width="0.900262" stroke-miterlimit="8" stroke-linecap="round"/>
<path d="M10.6045 16.4987L13.5 19.0816" stroke="#FFC000" stroke-width="0.900262" stroke-miterlimit="8" stroke-linecap="round"/>
<path d="M15.8818 10.5773L18.7774 13.1602" stroke="#FFC000" stroke-width="0.900262" stroke-miterlimit="8" stroke-linecap="round"/>
<path d="M19.8418 6.39999L22.4741 8.74802" stroke="#FFC000" stroke-width="0.900262" stroke-miterlimit="8" stroke-linecap="round"/>
</g>
</svg>
